<?xml version="1.0" encoding="UTF-8" standalone="no"?><svg xmlns="http://www.w3.org/2000/svg" xmlns:xlink="http://www.w3.org/1999/xlink" contentScriptType="application/ecmascript" contentStyleType="text/css" height="1453px" preserveAspectRatio="none" style="width:785px;height:1453px;" version="1.1" viewBox="0 0 785 1453" width="785px" zoomAndPan="magnify"><defs/><g><rect fill="#FFFFFF" height="345.377" style="stroke: #000000; stroke-width: 1.0;" width="10" x="139" y="174.4238"/><rect fill="#FFFFFF" height="345.377" style="stroke: #000000; stroke-width: 1.0;" width="10" x="139" y="622.7656"/><rect fill="#FFFFFF" height="345.377" style="stroke: #000000; stroke-width: 1.0;" width="10" x="139" y="1071.1074"/><rect fill="#FFFFFF" height="294.8945" style="stroke: #000000; stroke-width: 1.0;" width="10" x="391" y="224.9063"/><rect fill="#FFFFFF" height="294.8945" style="stroke: #000000; stroke-width: 1.0;" width="10" x="391" y="673.248"/><rect fill="#FFFFFF" height="294.8945" style="stroke: #000000; stroke-width: 1.0;" width="10" x="391" y="1121.5898"/><rect fill="#FFFFFF" height="113.9648" style="stroke: #000000; stroke-width: 1.0;" width="10" x="635" y="355.3535"/><rect fill="#FFFFFF" height="113.9648" style="stroke: #000000; stroke-width: 1.0;" width="10" x="635" y="803.6953"/><rect fill="#FFFFFF" height="113.9648" style="stroke: #000000; stroke-width: 1.0;" width="10" x="635" y="1252.0371"/><rect fill="#FFFFFF" height="434.3418" rx="5" ry="5" style="stroke: #000000; stroke-width: 2.0;" width="768" x="6" y="93.459"/><rect fill="#FFFFFF" height="434.3418" rx="5" ry="5" style="stroke: #000000; stroke-width: 2.0;" width="768" x="6" y="541.8008"/><rect fill="#FFFFFF" height="434.3418" rx="5" ry="5" style="stroke: #000000; stroke-width: 2.0;" width="768" x="6" y="990.1426"/><line style="stroke: #000000; stroke-width: 1.0; stroke-dasharray: 5.0,5.0;" x1="144" x2="144" y1="76.459" y2="1441.4844"/><line style="stroke: #000000; stroke-width: 1.0; stroke-dasharray: 5.0,5.0;" x1="396" x2="396" y1="76.459" y2="1441.4844"/><line style="stroke: #000000; stroke-width: 1.0; stroke-dasharray: 5.0,5.0;" x1="639.5" x2="639.5" y1="76.459" y2="1441.4844"/><rect fill="#9EA0CA" height="72.459" rx="5" ry="5" style="stroke: #FFFFFF; stroke-width: 1.5;" width="128" x="80" y="3"/><text fill="#FFFFFF" font-family="&quot;Noto Sans CJK KR&quot;, sans-serif" font-size="14" font-weight="bold" lengthAdjust="spacingAndGlyphs" textLength="94" x="97" y="36.1533">클라이언트 앱</text><text fill="#FFFFFF" font-family="&quot;Noto Sans CJK KR&quot;, sans-serif" font-size="14" font-weight="bold" lengthAdjust="spacingAndGlyphs" textLength="49" x="119.5" y="55.3828">or 기기</text><rect fill="#05D686" height="53.2295" rx="5" ry="5" style="stroke: #FFFFFF; stroke-width: 1.5;" width="74" x="359" y="22.2295"/><text fill="#FFFFFF" font-family="&quot;Noto Sans CJK KR&quot;, sans-serif" font-size="14" font-weight="bold" lengthAdjust="spacingAndGlyphs" textLength="40" x="376" y="55.3828">CLOVA</text><rect fill="#9EA0CA" height="72.459" rx="5" ry="5" style="stroke: #FFFFFF; stroke-width: 1.5;" width="161" x="559.5" y="3"/><text fill="#FFFFFF" font-family="&quot;Noto Sans CJK KR&quot;, sans-serif" font-size="14" font-weight="bold" lengthAdjust="spacingAndGlyphs" textLength="79" x="600.5" y="36.1533">날씨 알리미</text><text fill="#FFFFFF" font-family="&quot;Noto Sans CJK KR&quot;, sans-serif" font-size="14" font-weight="bold" lengthAdjust="spacingAndGlyphs" textLength="127" x="576.5" y="55.3828">Custom Extension</text><rect fill="#FFFFFF" height="345.377" style="stroke: #000000; stroke-width: 1.0;" width="10" x="139" y="174.4238"/><rect fill="#FFFFFF" height="345.377" style="stroke: #000000; stroke-width: 1.0;" width="10" x="139" y="622.7656"/><rect fill="#FFFFFF" height="345.377" style="stroke: #000000; stroke-width: 1.0;" width="10" x="139" y="1071.1074"/><rect fill="#FFFFFF" height="294.8945" style="stroke: #000000; stroke-width: 1.0;" width="10" x="391" y="224.9063"/><rect fill="#FFFFFF" height="294.8945" style="stroke: #000000; stroke-width: 1.0;" width="10" x="391" y="673.248"/><rect fill="#FFFFFF" height="294.8945" style="stroke: #000000; stroke-width: 1.0;" width="10" x="391" y="1121.5898"/><rect fill="#FFFFFF" height="113.9648" style="stroke: #000000; stroke-width: 1.0;" width="10" x="635" y="355.3535"/><rect fill="#FFFFFF" height="113.9648" style="stroke: #000000; stroke-width: 1.0;" width="10" x="635" y="803.6953"/><rect fill="#FFFFFF" height="113.9648" style="stroke: #000000; stroke-width: 1.0;" width="10" x="635" y="1252.0371"/><path d="M11,93.459 L117,93.459 L117,121.459 L107,131.459 L6,131.459 L6,98.459 " fill="#EEEEEE" style="stroke: #000000; stroke-width: 1.0;"/><rect fill="none" height="434.3418" rx="5" ry="5" style="stroke: #000000; stroke-width: 2.0;" width="768" x="6" y="93.459"/><text fill="#000000" font-family="&quot;Noto Sans CJK KR&quot;, sans-serif" font-size="12" font-weight="bold" lengthAdjust="spacingAndGlyphs" textLength="46" x="31" y="118.3047">Session</text><line style="stroke: #000000; stroke-width: 1.0;" x1="137" x2="127" y1="174.4238" y2="170.4238"/><line style="stroke: #000000; stroke-width: 1.0;" x1="137" x2="127" y1="174.4238" y2="178.4238"/><line style="stroke: #000000; stroke-width: 1.0;" x1="3" x2="138" y1="174.4238" y2="174.4238"/><text fill="#000000" font-family="&quot;Noto Sans CJK KR&quot;, sans-serif" font-size="12" lengthAdjust="spacingAndGlyphs" textLength="90" x="26" y="159.7871">사용자 입력 수신</text><line style="stroke: #000000; stroke-width: 1.0;" x1="389" x2="379" y1="224.9063" y2="220.9063"/><line style="stroke: #000000; stroke-width: 1.0;" x1="389" x2="379" y1="224.9063" y2="228.9063"/><line style="stroke: #000000; stroke-width: 1.0;" x1="149" x2="390" y1="224.9063" y2="224.9063"/><text fill="#000000" font-family="&quot;Noto Sans CJK KR&quot;, sans-serif" font-size="12" lengthAdjust="spacingAndGlyphs" textLength="203" x="168.5" y="210.2695">"날씨 알리미에게 오늘 날씨 물어봐 줘"</text><line style="stroke: #000000; stroke-width: 1.0;" x1="401" x2="443" y1="291.8711" y2="291.8711"/><line style="stroke: #000000; stroke-width: 1.0;" x1="443" x2="443" y1="291.8711" y2="304.8711"/><line style="stroke: #000000; stroke-width: 1.0;" x1="402" x2="443" y1="304.8711" y2="304.8711"/><polygon fill="#000000" points="412,300.8711,402,304.8711,412,308.8711,408,304.8711" style="stroke: #000000; stroke-width: 1.0;"/><text fill="#000000" font-family="&quot;Noto Sans CJK KR&quot;, sans-serif" font-size="12" lengthAdjust="spacingAndGlyphs" textLength="90" x="418" y="260.752">사용자 발화 분석</text><text fill="#000000" font-family="&quot;Noto Sans CJK KR&quot;, sans-serif" font-size="12" lengthAdjust="spacingAndGlyphs" textLength="92" x="418" y="277.2344">(Interaction 모델)</text><line style="stroke: #000000; stroke-width: 1.0;" x1="633" x2="623" y1="355.3535" y2="351.3535"/><line style="stroke: #000000; stroke-width: 1.0;" x1="633" x2="623" y1="355.3535" y2="359.3535"/><line style="stroke: #000000; stroke-width: 1.0;" x1="401" x2="634" y1="355.3535" y2="355.3535"/><text fill="#000000" font-family="&quot;Noto Sans CJK KR&quot;, sans-serif" font-size="12" lengthAdjust="spacingAndGlyphs" textLength="193" x="421.5" y="340.7168">IntentRequest 전송(HTTP Request)</text><line style="stroke: #000000; stroke-width: 1.0;" x1="645" x2="687" y1="405.8359" y2="405.8359"/><line style="stroke: #000000; stroke-width: 1.0;" x1="687" x2="687" y1="405.8359" y2="418.8359"/><line style="stroke: #000000; stroke-width: 1.0;" x1="646" x2="687" y1="418.8359" y2="418.8359"/><polygon fill="#000000" points="656,414.8359,646,418.8359,656,422.8359,652,418.8359" style="stroke: #000000; stroke-width: 1.0;"/><text fill="#000000" font-family="&quot;Noto Sans CJK KR&quot;, sans-serif" font-size="12" lengthAdjust="spacingAndGlyphs" textLength="90" x="662" y="391.1992">사용자 요청 처리</text><line style="stroke: #000000; stroke-width: 1.0;" x1="401" x2="411" y1="469.3184" y2="465.3184"/><line style="stroke: #000000; stroke-width: 1.0;" x1="401" x2="411" y1="469.3184" y2="473.3184"/><line style="stroke: #000000; stroke-width: 1.0; stroke-dasharray: 2.0,2.0;" x1="401" x2="639" y1="469.3184" y2="469.3184"/><text fill="#000000" font-family="&quot;Noto Sans CJK KR&quot;, sans-serif" font-size="12" lengthAdjust="spacingAndGlyphs" textLength="190" x="425.5" y="454.6816">응답 메시지 전달(HTTP Response)</text><line style="stroke: #000000; stroke-width: 1.0;" x1="144" x2="154" y1="519.8008" y2="515.8008"/><line style="stroke: #000000; stroke-width: 1.0;" x1="144" x2="154" y1="519.8008" y2="523.8008"/><line style="stroke: #000000; stroke-width: 1.0; stroke-dasharray: 2.0,2.0;" x1="144" x2="395" y1="519.8008" y2="519.8008"/><text fill="#000000" font-family="&quot;Noto Sans CJK KR&quot;, sans-serif" font-size="12" lengthAdjust="spacingAndGlyphs" textLength="110" x="215" y="505.1641">"오늘 날씨는 맑아요"</text><path d="M11,541.8008 L117,541.8008 L117,569.8008 L107,579.8008 L6,579.8008 L6,546.8008 " fill="#EEEEEE" style="stroke: #000000; stroke-width: 1.0;"/><rect fill="none" height="434.3418" rx="5" ry="5" style="stroke: #000000; stroke-width: 2.0;" width="768" x="6" y="541.8008"/><text fill="#000000" font-family="&quot;Noto Sans CJK KR&quot;, sans-serif" font-size="12" font-weight="bold" lengthAdjust="spacingAndGlyphs" textLength="46" x="31" y="566.6465">Session</text><line style="stroke: #000000; stroke-width: 1.0;" x1="137" x2="127" y1="622.7656" y2="618.7656"/><line style="stroke: #000000; stroke-width: 1.0;" x1="137" x2="127" y1="622.7656" y2="626.7656"/><line style="stroke: #000000; stroke-width: 1.0;" x1="3" x2="138" y1="622.7656" y2="622.7656"/><text fill="#000000" font-family="&quot;Noto Sans CJK KR&quot;, sans-serif" font-size="12" lengthAdjust="spacingAndGlyphs" textLength="90" x="26" y="608.1289">사용자 입력 수신</text><line style="stroke: #000000; stroke-width: 1.0;" x1="389" x2="379" y1="673.248" y2="669.248"/><line style="stroke: #000000; stroke-width: 1.0;" x1="389" x2="379" y1="673.248" y2="677.248"/><line style="stroke: #000000; stroke-width: 1.0;" x1="149" x2="390" y1="673.248" y2="673.248"/><text fill="#000000" font-family="&quot;Noto Sans CJK KR&quot;, sans-serif" font-size="12" lengthAdjust="spacingAndGlyphs" textLength="203" x="168.5" y="658.6113">"날씨 알리미에게 내일 날씨 물어봐 줘"</text><line style="stroke: #000000; stroke-width: 1.0;" x1="401" x2="443" y1="740.2129" y2="740.2129"/><line style="stroke: #000000; stroke-width: 1.0;" x1="443" x2="443" y1="740.2129" y2="753.2129"/><line style="stroke: #000000; stroke-width: 1.0;" x1="402" x2="443" y1="753.2129" y2="753.2129"/><polygon fill="#000000" points="412,749.2129,402,753.2129,412,757.2129,408,753.2129" style="stroke: #000000; stroke-width: 1.0;"/><text fill="#000000" font-family="&quot;Noto Sans CJK KR&quot;, sans-serif" font-size="12" lengthAdjust="spacingAndGlyphs" textLength="90" x="418" y="709.0938">사용자 발화 분석</text><text fill="#000000" font-family="&quot;Noto Sans CJK KR&quot;, sans-serif" font-size="12" lengthAdjust="spacingAndGlyphs" textLength="92" x="418" y="725.5762">(Interaction 모델)</text><line style="stroke: #000000; stroke-width: 1.0;" x1="633" x2="623" y1="803.6953" y2="799.6953"/><line style="stroke: #000000; stroke-width: 1.0;" x1="633" x2="623" y1="803.6953" y2="807.6953"/><line style="stroke: #000000; stroke-width: 1.0;" x1="401" x2="634" y1="803.6953" y2="803.6953"/><text fill="#000000" font-family="&quot;Noto Sans CJK KR&quot;, sans-serif" font-size="12" lengthAdjust="spacingAndGlyphs" textLength="193" x="421.5" y="789.0586">IntentRequest 전송(HTTP Request)</text><line style="stroke: #000000; stroke-width: 1.0;" x1="645" x2="687" y1="854.1777" y2="854.1777"/><line style="stroke: #000000; stroke-width: 1.0;" x1="687" x2="687" y1="854.1777" y2="867.1777"/><line style="stroke: #000000; stroke-width: 1.0;" x1="646" x2="687" y1="867.1777" y2="867.1777"/><polygon fill="#000000" points="656,863.1777,646,867.1777,656,871.1777,652,867.1777" style="stroke: #000000; stroke-width: 1.0;"/><text fill="#000000" font-family="&quot;Noto Sans CJK KR&quot;, sans-serif" font-size="12" lengthAdjust="spacingAndGlyphs" textLength="90" x="662" y="839.541">사용자 요청 처리</text><line style="stroke: #000000; stroke-width: 1.0;" x1="401" x2="411" y1="917.6602" y2="913.6602"/><line style="stroke: #000000; stroke-width: 1.0;" x1="401" x2="411" y1="917.6602" y2="921.6602"/><line style="stroke: #000000; stroke-width: 1.0; stroke-dasharray: 2.0,2.0;" x1="401" x2="639" y1="917.6602" y2="917.6602"/><text fill="#000000" font-family="&quot;Noto Sans CJK KR&quot;, sans-serif" font-size="12" lengthAdjust="spacingAndGlyphs" textLength="190" x="425.5" y="903.0234">응답 메시지 전달(HTTP Response)</text><line style="stroke: #000000; stroke-width: 1.0;" x1="144" x2="154" y1="968.1426" y2="964.1426"/><line style="stroke: #000000; stroke-width: 1.0;" x1="144" x2="154" y1="968.1426" y2="972.1426"/><line style="stroke: #000000; stroke-width: 1.0; stroke-dasharray: 2.0,2.0;" x1="144" x2="395" y1="968.1426" y2="968.1426"/><text fill="#000000" font-family="&quot;Noto Sans CJK KR&quot;, sans-serif" font-size="12" lengthAdjust="spacingAndGlyphs" textLength="110" x="215" y="953.5059">"내일 날씨는 흐려요"</text><path d="M11,990.1426 L117,990.1426 L117,1018.1426 L107,1028.1426 L6,1028.1426 L6,995.1426 " fill="#EEEEEE" style="stroke: #000000; stroke-width: 1.0;"/><rect fill="none" height="434.3418" rx="5" ry="5" style="stroke: #000000; stroke-width: 2.0;" width="768" x="6" y="990.1426"/><text fill="#000000" font-family="&quot;Noto Sans CJK KR&quot;, sans-serif" font-size="12" font-weight="bold" lengthAdjust="spacingAndGlyphs" textLength="46" x="31" y="1014.9883">Session</text><line style="stroke: #000000; stroke-width: 1.0;" x1="137" x2="127" y1="1071.1074" y2="1067.1074"/><line style="stroke: #000000; stroke-width: 1.0;" x1="137" x2="127" y1="1071.1074" y2="1075.1074"/><line style="stroke: #000000; stroke-width: 1.0;" x1="3" x2="138" y1="1071.1074" y2="1071.1074"/><text fill="#000000" font-family="&quot;Noto Sans CJK KR&quot;, sans-serif" font-size="12" lengthAdjust="spacingAndGlyphs" textLength="90" x="26" y="1056.4707">사용자 입력 수신</text><line style="stroke: #000000; stroke-width: 1.0;" x1="389" x2="379" y1="1121.5898" y2="1117.5898"/><line style="stroke: #000000; stroke-width: 1.0;" x1="389" x2="379" y1="1121.5898" y2="1125.5898"/><line style="stroke: #000000; stroke-width: 1.0;" x1="149" x2="390" y1="1121.5898" y2="1121.5898"/><text fill="#000000" font-family="&quot;Noto Sans CJK KR&quot;, sans-serif" font-size="12" lengthAdjust="spacingAndGlyphs" textLength="203" x="168.5" y="1106.9531">"날씨 알리미에게 서울 날씨 물어봐 줘"</text><line style="stroke: #000000; stroke-width: 1.0;" x1="401" x2="443" y1="1188.5547" y2="1188.5547"/><line style="stroke: #000000; stroke-width: 1.0;" x1="443" x2="443" y1="1188.5547" y2="1201.5547"/><line style="stroke: #000000; stroke-width: 1.0;" x1="402" x2="443" y1="1201.5547" y2="1201.5547"/><polygon fill="#000000" points="412,1197.5547,402,1201.5547,412,1205.5547,408,1201.5547" style="stroke: #000000; stroke-width: 1.0;"/><text fill="#000000" font-family="&quot;Noto Sans CJK KR&quot;, sans-serif" font-size="12" lengthAdjust="spacingAndGlyphs" textLength="90" x="418" y="1157.4355">사용자 발화 분석</text><text fill="#000000" font-family="&quot;Noto Sans CJK KR&quot;, sans-serif" font-size="12" lengthAdjust="spacingAndGlyphs" textLength="92" x="418" y="1173.918">(Interaction 모델)</text><line style="stroke: #000000; stroke-width: 1.0;" x1="633" x2="623" y1="1252.0371" y2="1248.0371"/><line style="stroke: #000000; stroke-width: 1.0;" x1="633" x2="623" y1="1252.0371" y2="1256.0371"/><line style="stroke: #000000; stroke-width: 1.0;" x1="401" x2="634" y1="1252.0371" y2="1252.0371"/><text fill="#000000" font-family="&quot;Noto Sans CJK KR&quot;, sans-serif" font-size="12" lengthAdjust="spacingAndGlyphs" textLength="193" x="421.5" y="1237.4004">IntentRequest 전송(HTTP Request)</text><line style="stroke: #000000; stroke-width: 1.0;" x1="645" x2="687" y1="1302.5195" y2="1302.5195"/><line style="stroke: #000000; stroke-width: 1.0;" x1="687" x2="687" y1="1302.5195" y2="1315.5195"/><line style="stroke: #000000; stroke-width: 1.0;" x1="646" x2="687" y1="1315.5195" y2="1315.5195"/><polygon fill="#000000" points="656,1311.5195,646,1315.5195,656,1319.5195,652,1315.5195" style="stroke: #000000; stroke-width: 1.0;"/><text fill="#000000" font-family="&quot;Noto Sans CJK KR&quot;, sans-serif" font-size="12" lengthAdjust="spacingAndGlyphs" textLength="90" x="662" y="1287.8828">사용자 요청 처리</text><line style="stroke: #000000; stroke-width: 1.0;" x1="401" x2="411" y1="1366.002" y2="1362.002"/><line style="stroke: #000000; stroke-width: 1.0;" x1="401" x2="411" y1="1366.002" y2="1370.002"/><line style="stroke: #000000; stroke-width: 1.0; stroke-dasharray: 2.0,2.0;" x1="401" x2="639" y1="1366.002" y2="1366.002"/><text fill="#000000" font-family="&quot;Noto Sans CJK KR&quot;, sans-serif" font-size="12" lengthAdjust="spacingAndGlyphs" textLength="190" x="425.5" y="1351.3652">응답 메시지 전달(HTTP Response)</text><line style="stroke: #000000; stroke-width: 1.0;" x1="144" x2="154" y1="1416.4844" y2="1412.4844"/><line style="stroke: #000000; stroke-width: 1.0;" x1="144" x2="154" y1="1416.4844" y2="1420.4844"/><line style="stroke: #000000; stroke-width: 1.0; stroke-dasharray: 2.0,2.0;" x1="144" x2="395" y1="1416.4844" y2="1416.4844"/><text fill="#000000" font-family="&quot;Noto Sans CJK KR&quot;, sans-serif" font-size="12" lengthAdjust="spacingAndGlyphs" textLength="110" x="215" y="1401.8477">"서울 날씨는 맑아요"</text><!--
@startuml
scale max 880 width
skinparam sequenceMessageAlign center
skinparam shadowing false
skinparam roundcorner 10
skinparam padding 10
skinparam defaultFontSize 12
skinparam defaultFontName "Noto Sans CJK KR", sans-serif

skinparam note {
  BackgroundColor #9EA0CA
  BorderColor #ffffff
  FontColor #ffffff
  FontSize 14
  FontStyle bold
}

skinparam sequence {
  ArrowColor #000000
  ActorBorderColor #000000
  ActorFontStyle Bolder


  LifeLineBorderColor #000000
  LifeLineBackgroundColor transparent
  ParticipantBorderColor transparent
  ParticipantFontSize 14
  ParticipantFontColor #ffffff
  ParticipantFontStyle bold

  BoxBorderColor #000000
  BoxFontColor #ffffff
    BoxFontSize 14
    BoxFontStyle bold
}
hide footbox

skinparam activity {
  BackgroundColor #9EA0CA
  BarColor #ffffff
  BorderColor #ffffff
  DiamondBackgroundColor #05D686
  DiamondBorderColor #ffffff
  DiamondFontColor #ffffff
  DiamondFontSize 14
  DiamondFontStyle bold
  FontColor #ffffff 
  FontSize 14
  FontStyle bold
}

participant "클라이언트 앱\nor 기기" as client #9EA0CA
participant "CLOVA" as clova #05D686
participant "날씨 알리미\nCustom Extension" as ext #9EA0CA

group Session
  [->> client: 사용자 입력 수신
  activate client
    client ->> clova: "날씨 알리미에게 오늘 날씨 물어봐 줘"

    activate clova
      clova -> clova: 사용자 발화 분석\n(Interaction 모델)
      clova ->> ext: IntentRequest 전송(HTTP Request)

      activate ext
        ext -> ext: 사용자 요청 처리
        ext - ->> clova: 응답 메시지 전달(HTTP Response)
      deactivate ext

      clova - ->> client: "오늘 날씨는 맑아요"
    deactivate clova

  deactivate client
end

group Session
  [->> client: 사용자 입력 수신
  activate client
    client ->> clova: "날씨 알리미에게 내일 날씨 물어봐 줘"

    activate clova
      clova -> clova: 사용자 발화 분석\n(Interaction 모델)
      clova ->> ext: IntentRequest 전송(HTTP Request)

      activate ext
        ext -> ext: 사용자 요청 처리
        ext - ->> clova: 응답 메시지 전달(HTTP Response)
      deactivate ext

      clova - ->> client: "내일 날씨는 흐려요"
    deactivate clova

  deactivate client
end

group Session
  [->> client: 사용자 입력 수신
  activate client
    client ->> clova: "날씨 알리미에게 서울 날씨 물어봐 줘"

    activate clova
      clova -> clova: 사용자 발화 분석\n(Interaction 모델)
      clova ->> ext: IntentRequest 전송(HTTP Request)

      activate ext
        ext -> ext: 사용자 요청 처리
        ext - ->> clova: 응답 메시지 전달(HTTP Response)
      deactivate ext

      clova - ->> client: "서울 날씨는 맑아요"
    deactivate clova

  deactivate client
end

@enduml

PlantUML version 1.2018.12(Sun Oct 21 19:15:15 KST 2018)
(GPL source distribution)
Java Runtime: Java(TM) SE Runtime Environment
JVM: Java HotSpot(TM) 64-Bit Server VM
Java Version: 1.8.0_191-b12
Operating System: Windows 10
OS Version: 10.0
Default Encoding: MS949
Language: ko
Country: KR
--></g></svg>