<?xml version="1.0" encoding="UTF-8" standalone="no"?><svg xmlns="http://www.w3.org/2000/svg" xmlns:xlink="http://www.w3.org/1999/xlink" contentScriptType="application/ecmascript" contentStyleType="text/css" height="1909px" preserveAspectRatio="none" style="width:792px;height:1909px;" version="1.1" viewBox="0 0 792 1909" width="792px" zoomAndPan="magnify"><defs/><g><rect fill="#FFFFFF" height="1759.3789" style="stroke: #000000; stroke-width: 1.0;" width="10" x="139" y="128.9414"/><rect fill="#FFFFFF" height="459.5713" style="stroke: #000000; stroke-width: 1.0;" width="10" x="338" y="179.4238"/><rect fill="#FFFFFF" height="294.8945" style="stroke: #000000; stroke-width: 1.0;" width="10" x="338" y="746.96"/><rect fill="#FFFFFF" height="294.8945" style="stroke: #000000; stroke-width: 1.0;" width="10" x="338" y="1142.8193"/><rect fill="#FFFFFF" height="187.6768" style="stroke: #000000; stroke-width: 1.0;" width="10" x="338" y="1584.1611"/><rect fill="#FFFFFF" height="113.9648" style="stroke: #000000; stroke-width: 1.0;" width="10" x="632" y="458.0654"/><rect fill="#FFFFFF" height="113.9648" style="stroke: #000000; stroke-width: 1.0;" width="10" x="632" y="877.4072"/><rect fill="#FFFFFF" height="113.9648" style="stroke: #000000; stroke-width: 1.0;" width="10" x="632" y="1273.2666"/><rect fill="#FFFFFF" height="86" style="stroke: #000000; stroke-width: 1.0;" width="10" x="632" y="1771.8379"/><rect fill="#FFFFFF" height="28" style="stroke: #000000; stroke-width: 1.0;" width="10" x="637" y="1829.8379"/><rect fill="#FFFFFF" height="1548.7021" rx="5" ry="5" style="stroke: #000000; stroke-width: 2.0;" width="775" x="6" y="331.6182"/><rect fill="#FFFFFF" height="269.8945" rx="5" ry="5" style="stroke: #000000; stroke-width: 2.0;" width="701" x="70" y="377.1006"/><rect fill="#FFFFFF" height="420.6064" rx="5" ry="5" style="stroke: #000000; stroke-width: 2.0;" width="721.5" x="6" y="1452.7139"/><line style="stroke: #000000; stroke-width: 1.0; stroke-dasharray: 5.0,5.0;" x1="144" x2="144" y1="76.459" y2="1897.3203"/><line style="stroke: #000000; stroke-width: 1.0; stroke-dasharray: 5.0,5.0;" x1="343" x2="343" y1="76.459" y2="1897.3203"/><line style="stroke: #000000; stroke-width: 1.0; stroke-dasharray: 5.0,5.0;" x1="636.5" x2="636.5" y1="76.459" y2="1897.3203"/><rect fill="#9EA0CA" height="72.459" rx="5" ry="5" style="stroke: #FFFFFF; stroke-width: 1.5;" width="128" x="80" y="3"/><text fill="#FFFFFF" font-family="&quot;Noto Sans CJK KR&quot;, sans-serif" font-size="14" font-weight="bold" lengthAdjust="spacingAndGlyphs" textLength="94" x="97" y="36.1533">클라이언트 앱</text><text fill="#FFFFFF" font-family="&quot;Noto Sans CJK KR&quot;, sans-serif" font-size="14" font-weight="bold" lengthAdjust="spacingAndGlyphs" textLength="49" x="119.5" y="55.3828">or 기기</text><rect fill="#05D686" height="53.2295" rx="5" ry="5" style="stroke: #FFFFFF; stroke-width: 1.5;" width="74" x="306" y="22.2295"/><text fill="#FFFFFF" font-family="&quot;Noto Sans CJK KR&quot;, sans-serif" font-size="14" font-weight="bold" lengthAdjust="spacingAndGlyphs" textLength="40" x="323" y="55.3828">CLOVA</text><rect fill="#9EA0CA" height="72.459" rx="5" ry="5" style="stroke: #FFFFFF; stroke-width: 1.5;" width="161" x="556.5" y="3"/><text fill="#FFFFFF" font-family="&quot;Noto Sans CJK KR&quot;, sans-serif" font-size="14" font-weight="bold" lengthAdjust="spacingAndGlyphs" textLength="63" x="605.5" y="36.1533">Pizza-bot</text><text fill="#FFFFFF" font-family="&quot;Noto Sans CJK KR&quot;, sans-serif" font-size="14" font-weight="bold" lengthAdjust="spacingAndGlyphs" textLength="127" x="573.5" y="55.3828">Custom extension</text><rect fill="#FFFFFF" height="1759.3789" style="stroke: #000000; stroke-width: 1.0;" width="10" x="139" y="128.9414"/><rect fill="#FFFFFF" height="459.5713" style="stroke: #000000; stroke-width: 1.0;" width="10" x="338" y="179.4238"/><rect fill="#FFFFFF" height="294.8945" style="stroke: #000000; stroke-width: 1.0;" width="10" x="338" y="746.96"/><rect fill="#FFFFFF" height="294.8945" style="stroke: #000000; stroke-width: 1.0;" width="10" x="338" y="1142.8193"/><rect fill="#FFFFFF" height="187.6768" style="stroke: #000000; stroke-width: 1.0;" width="10" x="338" y="1584.1611"/><rect fill="#FFFFFF" height="113.9648" style="stroke: #000000; stroke-width: 1.0;" width="10" x="632" y="458.0654"/><rect fill="#FFFFFF" height="113.9648" style="stroke: #000000; stroke-width: 1.0;" width="10" x="632" y="877.4072"/><rect fill="#FFFFFF" height="113.9648" style="stroke: #000000; stroke-width: 1.0;" width="10" x="632" y="1273.2666"/><rect fill="#FFFFFF" height="86" style="stroke: #000000; stroke-width: 1.0;" width="10" x="632" y="1771.8379"/><rect fill="#FFFFFF" height="28" style="stroke: #000000; stroke-width: 1.0;" width="10" x="637" y="1829.8379"/><line style="stroke: #000000; stroke-width: 1.0;" x1="137" x2="127" y1="128.9414" y2="124.9414"/><line style="stroke: #000000; stroke-width: 1.0;" x1="137" x2="127" y1="128.9414" y2="132.9414"/><line style="stroke: #000000; stroke-width: 1.0;" x1="3" x2="138" y1="128.9414" y2="128.9414"/><text fill="#000000" font-family="&quot;Noto Sans CJK KR&quot;, sans-serif" font-size="12" lengthAdjust="spacingAndGlyphs" textLength="90" x="26" y="114.3047">사용자 입력 수신</text><line style="stroke: #000000; stroke-width: 1.0;" x1="336" x2="326" y1="179.4238" y2="175.4238"/><line style="stroke: #000000; stroke-width: 1.0;" x1="336" x2="326" y1="179.4238" y2="183.4238"/><line style="stroke: #000000; stroke-width: 1.0;" x1="149" x2="337" y1="179.4238" y2="179.4238"/><text fill="#000000" font-family="&quot;Noto Sans CJK KR&quot;, sans-serif" font-size="12" lengthAdjust="spacingAndGlyphs" textLength="95" x="196" y="164.7871">"피자봇 시작해줘"</text><polygon fill="#9EA0CA" points="106,192.4238,381,192.4238,391,215.4238,381,239.4238,106,239.4238,96,215.4238,106,192.4238" style="stroke: #FFFFFF; stroke-width: 1.0;"/><text fill="#FFFFFF" font-family="&quot;Noto Sans CJK KR&quot;, sans-serif" font-size="14" font-weight="bold" lengthAdjust="spacingAndGlyphs" textLength="119" x="184" y="222.5771">Extension 활성화</text><line style="stroke: #000000; stroke-width: 1.0;" x1="348" x2="390" y1="303.6182" y2="303.6182"/><line style="stroke: #000000; stroke-width: 1.0;" x1="390" x2="390" y1="303.6182" y2="316.6182"/><line style="stroke: #000000; stroke-width: 1.0;" x1="349" x2="390" y1="316.6182" y2="316.6182"/><polygon fill="#000000" points="359,312.6182,349,316.6182,359,320.6182,355,316.6182" style="stroke: #000000; stroke-width: 1.0;"/><text fill="#000000" font-family="&quot;Noto Sans CJK KR&quot;, sans-serif" font-size="12" lengthAdjust="spacingAndGlyphs" textLength="90" x="365" y="272.499">사용자 발화 분석</text><text fill="#000000" font-family="&quot;Noto Sans CJK KR&quot;, sans-serif" font-size="12" lengthAdjust="spacingAndGlyphs" textLength="92" x="365" y="288.9814">(Interaction 모델)</text><path d="M11,331.6182 L117,331.6182 L117,359.6182 L107,369.6182 L6,369.6182 L6,336.6182 " fill="#EEEEEE" style="stroke: #000000; stroke-width: 1.0;"/><rect fill="none" height="1548.7021" rx="5" ry="5" style="stroke: #000000; stroke-width: 2.0;" width="775" x="6" y="331.6182"/><text fill="#000000" font-family="&quot;Noto Sans CJK KR&quot;, sans-serif" font-size="12" font-weight="bold" lengthAdjust="spacingAndGlyphs" textLength="46" x="31" y="356.4639">Session</text><path d="M75,377.1006 L183,377.1006 L183,405.1006 L173,415.1006 L70,415.1006 L70,382.1006 " fill="#EEEEEE" style="stroke: #000000; stroke-width: 1.0;"/><rect fill="none" height="269.8945" rx="5" ry="5" style="stroke: #000000; stroke-width: 2.0;" width="701" x="70" y="377.1006"/><text fill="#000000" font-family="&quot;Noto Sans CJK KR&quot;, sans-serif" font-size="12" font-weight="bold" lengthAdjust="spacingAndGlyphs" textLength="48" x="95" y="401.9463">Initiation</text><line style="stroke: #000000; stroke-width: 1.0;" x1="630" x2="620" y1="458.0654" y2="454.0654"/><line style="stroke: #000000; stroke-width: 1.0;" x1="630" x2="620" y1="458.0654" y2="462.0654"/><line style="stroke: #000000; stroke-width: 1.0;" x1="348" x2="631" y1="458.0654" y2="458.0654"/><text fill="#000000" font-family="&quot;Noto Sans CJK KR&quot;, sans-serif" font-size="12" lengthAdjust="spacingAndGlyphs" textLength="204" x="388" y="443.4287">LaunchRequest 전송(HTTP Request)</text><line style="stroke: #000000; stroke-width: 1.0;" x1="642" x2="684" y1="508.5479" y2="508.5479"/><line style="stroke: #000000; stroke-width: 1.0;" x1="684" x2="684" y1="508.5479" y2="521.5479"/><line style="stroke: #000000; stroke-width: 1.0;" x1="643" x2="684" y1="521.5479" y2="521.5479"/><polygon fill="#000000" points="653,517.5479,643,521.5479,653,525.5479,649,521.5479" style="stroke: #000000; stroke-width: 1.0;"/><text fill="#000000" font-family="&quot;Noto Sans CJK KR&quot;, sans-serif" font-size="12" lengthAdjust="spacingAndGlyphs" textLength="90" x="659" y="493.9111">사용자 요청 처리</text><line style="stroke: #000000; stroke-width: 1.0;" x1="348" x2="358" y1="572.0303" y2="568.0303"/><line style="stroke: #000000; stroke-width: 1.0;" x1="348" x2="358" y1="572.0303" y2="576.0303"/><line style="stroke: #000000; stroke-width: 1.0; stroke-dasharray: 2.0,2.0;" x1="348" x2="636" y1="572.0303" y2="572.0303"/><text fill="#000000" font-family="&quot;Noto Sans CJK KR&quot;, sans-serif" font-size="12" lengthAdjust="spacingAndGlyphs" textLength="190" x="397.5" y="557.3936">응답 메시지 전달(HTTP Response)</text><line style="stroke: #000000; stroke-width: 1.0;" x1="149" x2="159" y1="638.9951" y2="634.9951"/><line style="stroke: #000000; stroke-width: 1.0;" x1="149" x2="159" y1="638.9951" y2="642.9951"/><line style="stroke: #000000; stroke-width: 1.0; stroke-dasharray: 2.0,2.0;" x1="149" x2="342" y1="638.9951" y2="638.9951"/><text fill="#000000" font-family="&quot;Noto Sans CJK KR&quot;, sans-serif" font-size="12" lengthAdjust="spacingAndGlyphs" textLength="145" x="173.5" y="607.876">"안녕하세요. 피자봇입니다.</text><text fill="#000000" font-family="&quot;Noto Sans CJK KR&quot;, sans-serif" font-size="12" lengthAdjust="spacingAndGlyphs" textLength="122" x="173.5" y="624.3584">무엇을 도와드릴까요?"</text><line style="stroke: #000000; stroke-width: 1.0;" x1="137" x2="127" y1="696.4775" y2="692.4775"/><line style="stroke: #000000; stroke-width: 1.0;" x1="137" x2="127" y1="696.4775" y2="700.4775"/><line style="stroke: #000000; stroke-width: 1.0;" x1="3" x2="138" y1="696.4775" y2="696.4775"/><text fill="#000000" font-family="&quot;Noto Sans CJK KR&quot;, sans-serif" font-size="12" lengthAdjust="spacingAndGlyphs" textLength="90" x="26" y="681.8408">사용자 입력 수신</text><line style="stroke: #000000; stroke-width: 1.0;" x1="336" x2="326" y1="746.96" y2="742.96"/><line style="stroke: #000000; stroke-width: 1.0;" x1="336" x2="326" y1="746.96" y2="750.96"/><line style="stroke: #000000; stroke-width: 1.0;" x1="149" x2="337" y1="746.96" y2="746.96"/><text fill="#000000" font-family="&quot;Noto Sans CJK KR&quot;, sans-serif" font-size="12" lengthAdjust="spacingAndGlyphs" textLength="137" x="175" y="732.3232">"페퍼로니 피자 주문해줘."</text><line style="stroke: #000000; stroke-width: 1.0;" x1="348" x2="390" y1="813.9248" y2="813.9248"/><line style="stroke: #000000; stroke-width: 1.0;" x1="390" x2="390" y1="813.9248" y2="826.9248"/><line style="stroke: #000000; stroke-width: 1.0;" x1="349" x2="390" y1="826.9248" y2="826.9248"/><polygon fill="#000000" points="359,822.9248,349,826.9248,359,830.9248,355,826.9248" style="stroke: #000000; stroke-width: 1.0;"/><text fill="#000000" font-family="&quot;Noto Sans CJK KR&quot;, sans-serif" font-size="12" lengthAdjust="spacingAndGlyphs" textLength="90" x="365" y="782.8057">사용자 발화 분석</text><text fill="#000000" font-family="&quot;Noto Sans CJK KR&quot;, sans-serif" font-size="12" lengthAdjust="spacingAndGlyphs" textLength="92" x="365" y="799.2881">(Interaction 모델)</text><line style="stroke: #000000; stroke-width: 1.0;" x1="630" x2="620" y1="877.4072" y2="873.4072"/><line style="stroke: #000000; stroke-width: 1.0;" x1="630" x2="620" y1="877.4072" y2="881.4072"/><line style="stroke: #000000; stroke-width: 1.0;" x1="348" x2="631" y1="877.4072" y2="877.4072"/><text fill="#000000" font-family="&quot;Noto Sans CJK KR&quot;, sans-serif" font-size="12" lengthAdjust="spacingAndGlyphs" textLength="193" x="393.5" y="862.7705">IntentRequest 전송(HTTP Request)</text><line style="stroke: #000000; stroke-width: 1.0;" x1="642" x2="684" y1="927.8896" y2="927.8896"/><line style="stroke: #000000; stroke-width: 1.0;" x1="684" x2="684" y1="927.8896" y2="940.8896"/><line style="stroke: #000000; stroke-width: 1.0;" x1="643" x2="684" y1="940.8896" y2="940.8896"/><polygon fill="#000000" points="653,936.8896,643,940.8896,653,944.8896,649,940.8896" style="stroke: #000000; stroke-width: 1.0;"/><text fill="#000000" font-family="&quot;Noto Sans CJK KR&quot;, sans-serif" font-size="12" lengthAdjust="spacingAndGlyphs" textLength="90" x="659" y="913.2529">사용자 요청 처리</text><line style="stroke: #000000; stroke-width: 1.0;" x1="348" x2="358" y1="991.3721" y2="987.3721"/><line style="stroke: #000000; stroke-width: 1.0;" x1="348" x2="358" y1="991.3721" y2="995.3721"/><line style="stroke: #000000; stroke-width: 1.0; stroke-dasharray: 2.0,2.0;" x1="348" x2="636" y1="991.3721" y2="991.3721"/><text fill="#000000" font-family="&quot;Noto Sans CJK KR&quot;, sans-serif" font-size="12" lengthAdjust="spacingAndGlyphs" textLength="190" x="397.5" y="976.7354">응답 메시지 전달(HTTP Response)</text><line style="stroke: #000000; stroke-width: 1.0;" x1="149" x2="159" y1="1041.8545" y2="1037.8545"/><line style="stroke: #000000; stroke-width: 1.0;" x1="149" x2="159" y1="1041.8545" y2="1045.8545"/><line style="stroke: #000000; stroke-width: 1.0; stroke-dasharray: 2.0,2.0;" x1="149" x2="342" y1="1041.8545" y2="1041.8545"/><text fill="#000000" font-family="&quot;Noto Sans CJK KR&quot;, sans-serif" font-size="12" lengthAdjust="spacingAndGlyphs" textLength="105" x="193.5" y="1027.2178">"몇 판 주문할까요?"</text><line style="stroke: #000000; stroke-width: 1.0;" x1="137" x2="127" y1="1092.3369" y2="1088.3369"/><line style="stroke: #000000; stroke-width: 1.0;" x1="137" x2="127" y1="1092.3369" y2="1096.3369"/><line style="stroke: #000000; stroke-width: 1.0;" x1="3" x2="138" y1="1092.3369" y2="1092.3369"/><text fill="#000000" font-family="&quot;Noto Sans CJK KR&quot;, sans-serif" font-size="12" lengthAdjust="spacingAndGlyphs" textLength="90" x="26" y="1077.7002">사용자 입력 수신</text><line style="stroke: #000000; stroke-width: 1.0;" x1="336" x2="326" y1="1142.8193" y2="1138.8193"/><line style="stroke: #000000; stroke-width: 1.0;" x1="336" x2="326" y1="1142.8193" y2="1146.8193"/><line style="stroke: #000000; stroke-width: 1.0;" x1="149" x2="337" y1="1142.8193" y2="1142.8193"/><text fill="#000000" font-family="&quot;Noto Sans CJK KR&quot;, sans-serif" font-size="12" lengthAdjust="spacingAndGlyphs" textLength="89" x="199" y="1128.1826">"두 판 주문해줘."</text><line style="stroke: #000000; stroke-width: 1.0;" x1="348" x2="390" y1="1209.7842" y2="1209.7842"/><line style="stroke: #000000; stroke-width: 1.0;" x1="390" x2="390" y1="1209.7842" y2="1222.7842"/><line style="stroke: #000000; stroke-width: 1.0;" x1="349" x2="390" y1="1222.7842" y2="1222.7842"/><polygon fill="#000000" points="359,1218.7842,349,1222.7842,359,1226.7842,355,1222.7842" style="stroke: #000000; stroke-width: 1.0;"/><text fill="#000000" font-family="&quot;Noto Sans CJK KR&quot;, sans-serif" font-size="12" lengthAdjust="spacingAndGlyphs" textLength="90" x="365" y="1178.665">사용자 발화 분석</text><text fill="#000000" font-family="&quot;Noto Sans CJK KR&quot;, sans-serif" font-size="12" lengthAdjust="spacingAndGlyphs" textLength="92" x="365" y="1195.1475">(Interaction 모델)</text><line style="stroke: #000000; stroke-width: 1.0;" x1="630" x2="620" y1="1273.2666" y2="1269.2666"/><line style="stroke: #000000; stroke-width: 1.0;" x1="630" x2="620" y1="1273.2666" y2="1277.2666"/><line style="stroke: #000000; stroke-width: 1.0;" x1="348" x2="631" y1="1273.2666" y2="1273.2666"/><text fill="#000000" font-family="&quot;Noto Sans CJK KR&quot;, sans-serif" font-size="12" lengthAdjust="spacingAndGlyphs" textLength="193" x="393.5" y="1258.6299">IntentRequest 전송(HTTP Request)</text><line style="stroke: #000000; stroke-width: 1.0;" x1="642" x2="684" y1="1323.749" y2="1323.749"/><line style="stroke: #000000; stroke-width: 1.0;" x1="684" x2="684" y1="1323.749" y2="1336.749"/><line style="stroke: #000000; stroke-width: 1.0;" x1="643" x2="684" y1="1336.749" y2="1336.749"/><polygon fill="#000000" points="653,1332.749,643,1336.749,653,1340.749,649,1336.749" style="stroke: #000000; stroke-width: 1.0;"/><text fill="#000000" font-family="&quot;Noto Sans CJK KR&quot;, sans-serif" font-size="12" lengthAdjust="spacingAndGlyphs" textLength="90" x="659" y="1309.1123">사용자 요청 처리</text><line style="stroke: #000000; stroke-width: 1.0;" x1="348" x2="358" y1="1387.2314" y2="1383.2314"/><line style="stroke: #000000; stroke-width: 1.0;" x1="348" x2="358" y1="1387.2314" y2="1391.2314"/><line style="stroke: #000000; stroke-width: 1.0; stroke-dasharray: 2.0,2.0;" x1="348" x2="636" y1="1387.2314" y2="1387.2314"/><text fill="#000000" font-family="&quot;Noto Sans CJK KR&quot;, sans-serif" font-size="12" lengthAdjust="spacingAndGlyphs" textLength="190" x="397.5" y="1372.5947">응답 메시지 전달(HTTP Response)</text><line style="stroke: #000000; stroke-width: 1.0;" x1="149" x2="159" y1="1437.7139" y2="1433.7139"/><line style="stroke: #000000; stroke-width: 1.0;" x1="149" x2="159" y1="1437.7139" y2="1441.7139"/><line style="stroke: #000000; stroke-width: 1.0; stroke-dasharray: 2.0,2.0;" x1="149" x2="342" y1="1437.7139" y2="1437.7139"/><text fill="#000000" font-family="&quot;Noto Sans CJK KR&quot;, sans-serif" font-size="12" lengthAdjust="spacingAndGlyphs" textLength="114" x="189" y="1423.0771">"어디로 배달할까요?"</text><path d="M11,1452.7139 L139,1452.7139 L139,1480.7139 L129,1490.7139 L6,1490.7139 L6,1457.7139 " fill="#EEEEEE" style="stroke: #000000; stroke-width: 1.0;"/><rect fill="none" height="420.6064" rx="5" ry="5" style="stroke: #000000; stroke-width: 2.0;" width="721.5" x="6" y="1452.7139"/><text fill="#000000" font-family="&quot;Noto Sans CJK KR&quot;, sans-serif" font-size="12" font-weight="bold" lengthAdjust="spacingAndGlyphs" textLength="68" x="31" y="1477.5596">Termination</text><line style="stroke: #000000; stroke-width: 1.0;" x1="137" x2="127" y1="1533.6787" y2="1529.6787"/><line style="stroke: #000000; stroke-width: 1.0;" x1="137" x2="127" y1="1533.6787" y2="1537.6787"/><line style="stroke: #000000; stroke-width: 1.0;" x1="3" x2="138" y1="1533.6787" y2="1533.6787"/><text fill="#000000" font-family="&quot;Noto Sans CJK KR&quot;, sans-serif" font-size="12" lengthAdjust="spacingAndGlyphs" textLength="90" x="26" y="1519.042">사용자 입력 수신</text><line style="stroke: #000000; stroke-width: 1.0;" x1="336" x2="326" y1="1584.1611" y2="1580.1611"/><line style="stroke: #000000; stroke-width: 1.0;" x1="336" x2="326" y1="1584.1611" y2="1588.1611"/><line style="stroke: #000000; stroke-width: 1.0;" x1="149" x2="337" y1="1584.1611" y2="1584.1611"/><text fill="#000000" font-family="&quot;Noto Sans CJK KR&quot;, sans-serif" font-size="12" lengthAdjust="spacingAndGlyphs" textLength="86" x="200.5" y="1569.5244">"그만 종료해줘."</text><polygon fill="#9EA0CA" points="106,1597.1611,381,1597.1611,391,1620.1611,381,1644.1611,106,1644.1611,96,1620.1611,106,1597.1611" style="stroke: #FFFFFF; stroke-width: 1.0;"/><text fill="#FFFFFF" font-family="&quot;Noto Sans CJK KR&quot;, sans-serif" font-size="14" font-weight="bold" lengthAdjust="spacingAndGlyphs" textLength="138" x="174.5" y="1627.3145">Extension 사용 종료</text><line style="stroke: #000000; stroke-width: 1.0;" x1="348" x2="390" y1="1708.3555" y2="1708.3555"/><line style="stroke: #000000; stroke-width: 1.0;" x1="390" x2="390" y1="1708.3555" y2="1721.3555"/><line style="stroke: #000000; stroke-width: 1.0;" x1="349" x2="390" y1="1721.3555" y2="1721.3555"/><polygon fill="#000000" points="359,1717.3555,349,1721.3555,359,1725.3555,355,1721.3555" style="stroke: #000000; stroke-width: 1.0;"/><text fill="#000000" font-family="&quot;Noto Sans CJK KR&quot;, sans-serif" font-size="12" lengthAdjust="spacingAndGlyphs" textLength="94" x="365" y="1677.2363">"사용자 발화 분석</text><text fill="#000000" font-family="&quot;Noto Sans CJK KR&quot;, sans-serif" font-size="12" lengthAdjust="spacingAndGlyphs" textLength="96" x="365" y="1693.7188">(Interaction 모델)"</text><line style="stroke: #000000; stroke-width: 1.0;" x1="630" x2="620" y1="1771.8379" y2="1767.8379"/><line style="stroke: #000000; stroke-width: 1.0;" x1="630" x2="620" y1="1771.8379" y2="1775.8379"/><line style="stroke: #000000; stroke-width: 1.0;" x1="343" x2="631" y1="1771.8379" y2="1771.8379"/><text fill="#000000" font-family="&quot;Noto Sans CJK KR&quot;, sans-serif" font-size="12" lengthAdjust="spacingAndGlyphs" textLength="245" x="365" y="1757.2012">SessionEndedRequest 전송(HTTP Request)</text><line style="stroke: #000000; stroke-width: 1.0;" x1="647" x2="689" y1="1822.3203" y2="1822.3203"/><line style="stroke: #000000; stroke-width: 1.0;" x1="689" x2="689" y1="1822.3203" y2="1835.3203"/><line style="stroke: #000000; stroke-width: 1.0;" x1="648" x2="689" y1="1835.3203" y2="1835.3203"/><polygon fill="#000000" points="658,1831.3203,648,1835.3203,658,1839.3203,654,1835.3203" style="stroke: #000000; stroke-width: 1.0;"/><text fill="#000000" font-family="&quot;Noto Sans CJK KR&quot;, sans-serif" font-size="12" lengthAdjust="spacingAndGlyphs" textLength="24" x="664" y="1807.6836">종료</text><!--
@startuml
scale max 880 width
skinparam sequenceMessageAlign center
skinparam shadowing false
skinparam roundcorner 10
skinparam padding 10
skinparam defaultFontSize 12
skinparam defaultFontName "Noto Sans CJK KR", sans-serif

skinparam note {
  BackgroundColor #9EA0CA
  BorderColor #ffffff
  FontColor #ffffff
  FontSize 14
  FontStyle bold
}

skinparam sequence {
  ArrowColor #000000
  ActorBorderColor #000000
  ActorFontStyle Bolder


  LifeLineBorderColor #000000
  LifeLineBackgroundColor transparent
  ParticipantBorderColor transparent
  ParticipantFontSize 14
  ParticipantFontColor #ffffff
  ParticipantFontStyle bold

  BoxBorderColor #000000
  BoxFontColor #ffffff
    BoxFontSize 14
    BoxFontStyle bold
}
hide footbox

skinparam activity {
  BackgroundColor #9EA0CA
  BarColor #ffffff
  BorderColor #ffffff
  DiamondBackgroundColor #05D686
  DiamondBorderColor #ffffff
  DiamondFontColor #ffffff
  DiamondFontSize 14
  DiamondFontStyle bold
  FontColor #ffffff 
  FontSize 14
  FontStyle bold
}

participant "클라이언트 앱\nor 기기" as client #9EA0CA
participant "CLOVA" as clova #05D686
participant "Pizza-bot\nCustom extension" as ext #9EA0CA

[->> client: 사용자 입력 수신

activate client
  client ->> clova: "피자봇 시작해줘"
  hnote over client, clova: Extension 활성화

    activate clova
      clova -> clova: 사용자 발화 분석\l(Interaction 모델)

    group Session

      group Initiation
        clova ->> ext: LaunchRequest 전송(HTTP Request)

        activate ext
          ext -> ext: 사용자 요청 처리
          ext - ->> clova: 응답 메시지 전달(HTTP Response)
        deactivate ext

        clova - ->> client: "안녕하세요. 피자봇입니다.\l무엇을 도와드릴까요?"

        deactivate clova

      end

  [->> client: 사용자 입력 수신

  client ->> clova: "페퍼로니 피자 주문해줘."

  activate clova
    clova -> clova: 사용자 발화 분석\l(Interaction 모델)
    clova ->> ext: IntentRequest 전송(HTTP Request)

    activate ext
      ext -> ext: 사용자 요청 처리
      ext - ->> clova: 응답 메시지 전달(HTTP Response)
    deactivate ext

    clova - ->> client: "몇 판 주문할까요?"

  deactivate clova

  [->> client: 사용자 입력 수신

  client ->> clova: "두 판 주문해줘."

  activate clova
    clova -> clova: 사용자 발화 분석\l(Interaction 모델)
    clova ->> ext: IntentRequest 전송(HTTP Request)

    activate ext
      ext -> ext: 사용자 요청 처리
      ext - ->> clova: 응답 메시지 전달(HTTP Response)
    deactivate ext

    clova - ->> client: "어디로 배달할까요?"

  deactivate clova

  group Termination

    [->> client: 사용자 입력 수신

    client ->> clova: "그만 종료해줘."
    hnote over client, clova: Extension 사용 종료

    activate clova
      clova -> clova: "사용자 발화 분석\n(Interaction 모델)"
      clova ->> ext: SessionEndedRequest 전송(HTTP Request)
    deactivate clova

	activate ext
		ext -> ext: 종료
	activate ext
	deactivate ext
	deactivate ext
  end

end

@enduml

PlantUML version 1.2018.12(Sun Oct 21 19:15:15 KST 2018)
(GPL source distribution)
Java Runtime: Java(TM) SE Runtime Environment
JVM: Java HotSpot(TM) 64-Bit Server VM
Java Version: 1.8.0_191-b12
Operating System: Windows 10
OS Version: 10.0
Default Encoding: MS949
Language: ko
Country: KR
--></g></svg>